<svg xmlns="http://www.w3.org/2000/svg" viewBox="0 0 960 960" role="img" aria-label="SoundTouch Bridge">
  <rect x="92" y="298" width="776" height="372" rx="58" fill="#ffffff"/>
  <path d="M120 314c26-24 56-36 92-36h536c36 0 66 12 92 36v44H120z" fill="#ffffff" opacity="0.82"/>
  <path d="M150 640h660c-26 24-56 36-92 36H242c-36 0-66-12-92-36z" fill="#ffffff" opacity="0.82"/>

  <rect x="376" y="326" width="208" height="268" rx="26" fill="#222222"/>
  <rect x="406" y="352" width="148" height="70" rx="12" fill="#ffffff" opacity="0.9"/>
  <circle cx="480" cy="462" r="16" fill="#ffffff" opacity="0.92"/>
  <rect x="430" y="520" width="100" height="10" rx="5" fill="#ffffff" opacity="0.9"/>

  <rect x="136" y="386" width="210" height="212" rx="10" fill="#222222" opacity="0.82"/>
  <rect x="614" y="386" width="210" height="212" rx="10" fill="#222222" opacity="0.82"/>
  <g fill="#ffffff" opacity="0.7">
    <circle cx="178" cy="430" r="9"/>
    <circle cx="228" cy="430" r="9"/>
    <circle cx="278" cy="430" r="9"/>
    <circle cx="666" cy="430" r="9"/>
    <circle cx="716" cy="430" r="9"/>
    <circle cx="766" cy="430" r="9"/>
    <circle cx="178" cy="500" r="9"/>
    <circle cx="228" cy="500" r="9"/>
    <circle cx="278" cy="500" r="9"/>
    <circle cx="666" cy="500" r="9"/>
    <circle cx="716" cy="500" r="9"/>
    <circle cx="766" cy="500" r="9"/>
    <circle cx="178" cy="570" r="9"/>
    <circle cx="228" cy="570" r="9"/>
    <circle cx="278" cy="570" r="9"/>
    <circle cx="666" cy="570" r="9"/>
    <circle cx="716" cy="570" r="9"/>
    <circle cx="766" cy="570" r="9"/>
  </g>
  <rect x="358" y="226" width="244" height="66" rx="12" fill="#ffffff"/>
  <rect x="396" y="244" width="64" height="30" rx="8" fill="#222222"/>
  <rect x="466" y="244" width="98" height="30" rx="8" fill="#222222" opacity="0.78"/>
</svg>
