<svg xmlns="http://www.w3.org/2000/svg" viewBox="0 0 1000 1000" role="img" aria-label="SoundTouch 20 device image">
  <rect width="1000" height="1000" rx="220" fill="#f6f7f9"/>
  <circle cx="500" cy="500" r="390" fill="#ffffff"/>

  <g transform="translate(104 270)" fill="none" stroke-linecap="round" stroke-linejoin="round">
    <path d="M94 132h604c31 0 56 25 56 56v228c0 31-25 56-56 56H94c-31 0-56-25-56-56V188c0-31 25-56 56-56Z" stroke="#24272c" stroke-width="18"/>
    <path d="M76 152 126 88h540l50 64" stroke="#24272c" stroke-width="16"/>
    <path d="M120 448h552" stroke="#8b929b" stroke-width="12"/>

    <path d="M337 170h118c18 0 32 14 32 32v186c0 18-14 32-32 32H337c-18 0-32-14-32-32V202c0-18 14-32 32-32Z" stroke="#24272c" stroke-width="16"/>
    <path d="M305 364h182" stroke="#24272c" stroke-width="16"/>
    <path d="M338 408h116" stroke="#8b929b" stroke-width="12"/>

    <path d="M340 96h112" stroke="#24272c" stroke-width="14"/>
    <path d="M354 210h84" stroke="#8b929b" stroke-width="10"/>
    <path d="M370 244h52" stroke="#8b929b" stroke-width="10"/>
    <path d="M384 278h24" stroke="#8b929b" stroke-width="10"/>
    <circle cx="396" cy="318" r="10" fill="#24272c" stroke="none"/>

    <path d="M546 228h106" stroke="#c0c5cc" stroke-width="10"/>
    <path d="M546 278h106" stroke="#d0d4da" stroke-width="10"/>
    <path d="M140 228h106" stroke="#c0c5cc" stroke-width="10"/>
    <path d="M140 278h106" stroke="#d0d4da" stroke-width="10"/>
  </g>
</svg>
