<svg xmlns="http://www.w3.org/2000/svg" viewBox="0 0 960 960" role="img" aria-label="SoundTouch Bridge">
  <!-- Homey recolours app/driver icons into a single flat mask, so detail must come from
       negative space (cut-out holes), not colour. evenodd subtracts the inner subpaths. -->
  <path fill="#1d1d1f" fill-rule="evenodd" d="M400 210 H560 A70 70 0 0 1 630 280 V680 A70 70 0 0 1 560 750 H400 A70 70 0 0 1 330 680 V280 A70 70 0 0 1 400 210 Z
    M403 270 H557 A23 23 0 0 1 557 316 H403 A23 23 0 0 1 403 270 Z
    M372 430 a18 18 0 1 0 36 0 a18 18 0 1 0 -36 0 Z
    M432 430 a18 18 0 1 0 36 0 a18 18 0 1 0 -36 0 Z
    M492 430 a18 18 0 1 0 36 0 a18 18 0 1 0 -36 0 Z
    M552 430 a18 18 0 1 0 36 0 a18 18 0 1 0 -36 0 Z
    M372 496 a18 18 0 1 0 36 0 a18 18 0 1 0 -36 0 Z
    M432 496 a18 18 0 1 0 36 0 a18 18 0 1 0 -36 0 Z
    M492 496 a18 18 0 1 0 36 0 a18 18 0 1 0 -36 0 Z
    M552 496 a18 18 0 1 0 36 0 a18 18 0 1 0 -36 0 Z
    M372 562 a18 18 0 1 0 36 0 a18 18 0 1 0 -36 0 Z
    M432 562 a18 18 0 1 0 36 0 a18 18 0 1 0 -36 0 Z
    M492 562 a18 18 0 1 0 36 0 a18 18 0 1 0 -36 0 Z
    M552 562 a18 18 0 1 0 36 0 a18 18 0 1 0 -36 0 Z
    M372 628 a18 18 0 1 0 36 0 a18 18 0 1 0 -36 0 Z
    M432 628 a18 18 0 1 0 36 0 a18 18 0 1 0 -36 0 Z
    M492 628 a18 18 0 1 0 36 0 a18 18 0 1 0 -36 0 Z
    M552 628 a18 18 0 1 0 36 0 a18 18 0 1 0 -36 0 Z"/>
</svg>
