<svg xmlns="http://www.w3.org/2000/svg" viewBox="0 0 960 960" role="img" aria-label="SoundTouch Bridge">
  <defs>
    <filter id="speakerShadow" x="-20%" y="-20%" width="140%" height="140%">
      <feDropShadow dx="0" dy="22" stdDeviation="20" flood-color="#000000" flood-opacity="0.28"/>
    </filter>
    <linearGradient id="body" x1="132" y1="280" x2="828" y2="686" gradientUnits="userSpaceOnUse">
      <stop offset="0" stop-color="#343434"/>
      <stop offset="0.55" stop-color="#232323"/>
      <stop offset="1" stop-color="#111111"/>
    </linearGradient>
    <linearGradient id="top" x1="210" y1="218" x2="754" y2="252" gradientUnits="userSpaceOnUse">
      <stop offset="0" stop-color="#161616"/>
      <stop offset="0.26" stop-color="#d7d7d7"/>
      <stop offset="0.74" stop-color="#ececec"/>
      <stop offset="1" stop-color="#c8c8c8"/>
    </linearGradient>
    <linearGradient id="display" x1="428" y1="312" x2="532" y2="570" gradientUnits="userSpaceOnUse">
      <stop offset="0" stop-color="#3b3b3b"/>
      <stop offset="1" stop-color="#090909"/>
    </linearGradient>
    <clipPath id="speakerBody">
      <rect x="110" y="280" width="740" height="394" rx="44"/>
    </clipPath>
    <pattern id="grille" x="0" y="0" width="12" height="12" patternUnits="userSpaceOnUse">
      <rect width="12" height="12" fill="#1b1b1b"/>
      <circle cx="6" cy="6" r="1.25" fill="#444444"/>
    </pattern>
  </defs>

  <g filter="url(#speakerShadow)">
    <path d="M138 246c26-28 57-42 94-42h496c37 0 68 14 94 42l28 58H110z" fill="url(#top)"/>
    <rect x="366" y="220" width="228" height="60" rx="8" fill="#222222"/>
    <rect x="390" y="236" width="58" height="28" rx="6" fill="#343434"/>
    <rect x="454" y="236" width="88" height="28" rx="6" fill="#303030"/>
    <rect x="548" y="236" width="34" height="28" rx="6" fill="#343434"/>

    <g clip-path="url(#speakerBody)">
      <rect x="110" y="280" width="740" height="394" fill="url(#body)"/>
      <rect x="110" y="300" width="740" height="374" fill="url(#grille)" opacity="0.92"/>
      <rect x="408" y="312" width="144" height="290" rx="18" fill="url(#display)" stroke="#8b8b8b" stroke-width="4"/>
      <circle cx="480" cy="410" r="10" fill="#e8e8e8" opacity="0.82"/>
      <path d="M462 374c10-9 26-9 36 0M470 384c6-5 14-5 20 0" fill="none" stroke="#d8d8d8" stroke-width="5" stroke-linecap="round" opacity="0.72"/>
      <path d="M436 532h88" stroke="#f2f2f2" stroke-width="9" stroke-linecap="round"/>
      <path d="M408 574h144v28H408z" fill="#d9d9d9"/>
    </g>
    <rect x="110" y="280" width="740" height="394" rx="44" fill="none" stroke="#0f0f0f" stroke-width="10"/>
  </g>
</svg>
