<svg xmlns="http://www.w3.org/2000/svg" viewBox="0 0 960 960" role="img" aria-label="SoundTouch Bridge">
  <!-- Homey recolours app/driver icons into a single flat mask, so detail must come from
       negative space (cut-out holes), not colour. evenodd subtracts the inner subpaths.
       Sized to fill the circle Homey crops to (artwork kept within radius ~440 of centre). -->
  <path fill="#1d1d1f" fill-rule="evenodd" d="M295 100 H665 A95 95 0 0 1 760 195 V765 A95 95 0 0 1 665 860 H295 A95 95 0 0 1 200 765 V195 A95 95 0 0 1 295 100 Z
    M325 185 H635 A35 35 0 0 1 635 255 H325 A35 35 0 0 1 325 185 Z
    M257 380 a28 28 0 1 0 56 0 a28 28 0 1 0 -56 0 Z
    M387 380 a28 28 0 1 0 56 0 a28 28 0 1 0 -56 0 Z
    M517 380 a28 28 0 1 0 56 0 a28 28 0 1 0 -56 0 Z
    M647 380 a28 28 0 1 0 56 0 a28 28 0 1 0 -56 0 Z
    M257 490 a28 28 0 1 0 56 0 a28 28 0 1 0 -56 0 Z
    M387 490 a28 28 0 1 0 56 0 a28 28 0 1 0 -56 0 Z
    M517 490 a28 28 0 1 0 56 0 a28 28 0 1 0 -56 0 Z
    M647 490 a28 28 0 1 0 56 0 a28 28 0 1 0 -56 0 Z
    M257 600 a28 28 0 1 0 56 0 a28 28 0 1 0 -56 0 Z
    M387 600 a28 28 0 1 0 56 0 a28 28 0 1 0 -56 0 Z
    M517 600 a28 28 0 1 0 56 0 a28 28 0 1 0 -56 0 Z
    M647 600 a28 28 0 1 0 56 0 a28 28 0 1 0 -56 0 Z
    M257 710 a28 28 0 1 0 56 0 a28 28 0 1 0 -56 0 Z
    M387 710 a28 28 0 1 0 56 0 a28 28 0 1 0 -56 0 Z
    M517 710 a28 28 0 1 0 56 0 a28 28 0 1 0 -56 0 Z
    M647 710 a28 28 0 1 0 56 0 a28 28 0 1 0 -56 0 Z"/>
</svg>
